<svg xmlns="http://www.w3.org/2000/svg" xmlns:xlink="http://www.w3.org/1999/xlink" width="211" zoomAndPan="magnify" viewBox="0 0 158.25 30.000001" height="40" preserveAspectRatio="xMidYMid meet" version="1.0"><defs><g/><clipPath id="38d619768e"><path d="M 2.191406 7 L 15 7 L 15 20 L 2.191406 20 Z M 2.191406 7 " clip-rule="nonzero"/></clipPath><clipPath id="b317929bd2"><path d="M 2.191406 23 L 83 23 L 83 26 L 2.191406 26 Z M 2.191406 23 " clip-rule="nonzero"/></clipPath><clipPath id="48c05e2992"><path d="M 83 7 L 99.304688 7 L 99.304688 23.65625 L 83 23.65625 Z M 83 7 " clip-rule="nonzero"/></clipPath></defs><g clip-path="url(#38d619768e)"><g fill="#000000" fill-opacity="1"><g transform="translate(2.290107, 19.987828)"><g><path d="M 8.71875 -2.328125 L 3.84375 -2.328125 L 3.03125 0 L 0.453125 0 L 4.859375 -12.25 L 7.71875 -12.25 L 12.109375 0 L 9.515625 0 Z M 8.046875 -4.296875 L 6.28125 -9.421875 L 4.5 -4.296875 Z M 8.046875 -4.296875 "/></g></g></g></g><g fill="#000000" fill-opacity="1"><g transform="translate(13.079867, 19.987828)"><g><path d="M 0.609375 -6.140625 C 0.609375 -7.335938 0.878906 -8.410156 1.421875 -9.359375 C 1.972656 -10.316406 2.71875 -11.0625 3.65625 -11.59375 C 4.59375 -12.125 5.644531 -12.390625 6.8125 -12.390625 C 8.1875 -12.390625 9.382812 -12.039062 10.40625 -11.34375 C 11.4375 -10.644531 12.15625 -9.675781 12.5625 -8.4375 L 9.75 -8.4375 C 9.46875 -9.019531 9.070312 -9.457031 8.5625 -9.75 C 8.050781 -10.039062 7.460938 -10.1875 6.796875 -10.1875 C 6.085938 -10.1875 5.453125 -10.019531 4.890625 -9.6875 C 4.335938 -9.351562 3.90625 -8.878906 3.59375 -8.265625 C 3.289062 -7.660156 3.140625 -6.953125 3.140625 -6.140625 C 3.140625 -5.328125 3.289062 -4.613281 3.59375 -4 C 3.90625 -3.382812 4.335938 -2.910156 4.890625 -2.578125 C 5.453125 -2.253906 6.085938 -2.09375 6.796875 -2.09375 C 7.460938 -2.09375 8.050781 -2.238281 8.5625 -2.53125 C 9.070312 -2.832031 9.46875 -3.273438 9.75 -3.859375 L 12.5625 -3.859375 C 12.15625 -2.609375 11.441406 -1.632812 10.421875 -0.9375 C 9.398438 -0.238281 8.195312 0.109375 6.8125 0.109375 C 5.644531 0.109375 4.59375 -0.15625 3.65625 -0.6875 C 2.71875 -1.21875 1.972656 -1.957031 1.421875 -2.90625 C 0.878906 -3.851562 0.609375 -4.929688 0.609375 -6.140625 Z M 0.609375 -6.140625 "/></g></g></g><g fill="#000000" fill-opacity="1"><g transform="translate(24.780579, 19.987828)"><g><path d="M 11.359375 -12.234375 L 11.359375 0 L 8.90625 0 L 8.90625 -5.203125 L 3.65625 -5.203125 L 3.65625 0 L 1.203125 0 L 1.203125 -12.234375 L 3.65625 -12.234375 L 3.65625 -7.203125 L 8.90625 -7.203125 L 8.90625 -12.234375 Z M 11.359375 -12.234375 "/></g></g></g><g fill="#000000" fill-opacity="1"><g transform="translate(35.58787, 19.987828)"><g><path d="M 8.71875 -2.328125 L 3.84375 -2.328125 L 3.03125 0 L 0.453125 0 L 4.859375 -12.25 L 7.71875 -12.25 L 12.109375 0 L 9.515625 0 Z M 8.046875 -4.296875 L 6.28125 -9.421875 L 4.5 -4.296875 Z M 8.046875 -4.296875 "/></g></g></g><g fill="#000000" fill-opacity="1"><g transform="translate(46.37763, 19.987828)"><g><path d="M 5.484375 -12.234375 C 6.773438 -12.234375 7.90625 -11.984375 8.875 -11.484375 C 9.851562 -10.984375 10.609375 -10.265625 11.140625 -9.328125 C 11.671875 -8.398438 11.9375 -7.320312 11.9375 -6.09375 C 11.9375 -4.875 11.671875 -3.800781 11.140625 -2.875 C 10.609375 -1.957031 9.851562 -1.25 8.875 -0.75 C 7.90625 -0.25 6.773438 0 5.484375 0 L 1.203125 0 L 1.203125 -12.234375 Z M 5.40625 -2.09375 C 6.6875 -2.09375 7.675781 -2.441406 8.375 -3.140625 C 9.082031 -3.835938 9.4375 -4.820312 9.4375 -6.09375 C 9.4375 -7.375 9.082031 -8.375 8.375 -9.09375 C 7.675781 -9.8125 6.6875 -10.171875 5.40625 -10.171875 L 3.65625 -10.171875 L 3.65625 -2.09375 Z M 5.40625 -2.09375 "/></g></g></g><g fill="#000000" fill-opacity="1"><g transform="translate(57.184919, 19.987828)"><g><path d="M 3.65625 -12.234375 L 3.65625 0 L 1.203125 0 L 1.203125 -12.234375 Z M 3.65625 -12.234375 "/></g></g></g><g fill="#000000" fill-opacity="1"><g transform="translate(60.301717, 19.987828)"><g><path d="M 11.671875 0 L 9.21875 0 L 3.65625 -8.390625 L 3.65625 0 L 1.203125 0 L 1.203125 -12.25 L 3.65625 -12.25 L 9.21875 -3.84375 L 9.21875 -12.25 L 11.671875 -12.25 Z M 11.671875 0 "/></g></g></g><g fill="#000000" fill-opacity="1"><g transform="translate(71.424336, 19.987828)"><g><path d="M 11.359375 -12.234375 L 11.359375 0 L 8.90625 0 L 8.90625 -5.203125 L 3.65625 -5.203125 L 3.65625 0 L 1.203125 0 L 1.203125 -12.234375 L 3.65625 -12.234375 L 3.65625 -7.203125 L 8.90625 -7.203125 L 8.90625 -12.234375 Z M 11.359375 -12.234375 "/></g></g></g><g fill="#000000" fill-opacity="1"><g transform="translate(82.217728, 19.987828)"><g/></g></g><g fill="#000000" fill-opacity="1"><g transform="translate(84.633804, 19.987828)"><g/></g></g><g fill="#000000" fill-opacity="1"><g transform="translate(87.049881, 19.987828)"><g/></g></g><g fill="#000000" fill-opacity="1"><g transform="translate(89.465957, 19.987828)"><g/></g></g><g fill="#000000" fill-opacity="1"><g transform="translate(91.882033, 19.987828)"><g/></g></g><g fill="#000000" fill-opacity="1"><g transform="translate(94.29811, 19.987828)"><g/></g></g><g fill="#ea482f" fill-opacity="1"><g transform="translate(96.712209, 19.987828)"><g><path d="M 5.4375 0.125 C 4.582031 0.125 3.8125 -0.0195312 3.125 -0.3125 C 2.445312 -0.601562 1.90625 -1.023438 1.5 -1.578125 C 1.101562 -2.128906 0.898438 -2.78125 0.890625 -3.53125 L 3.53125 -3.53125 C 3.5625 -3.019531 3.738281 -2.617188 4.0625 -2.328125 C 4.382812 -2.035156 4.820312 -1.890625 5.375 -1.890625 C 5.945312 -1.890625 6.394531 -2.023438 6.71875 -2.296875 C 7.050781 -2.578125 7.21875 -2.941406 7.21875 -3.390625 C 7.21875 -3.742188 7.109375 -4.035156 6.890625 -4.265625 C 6.671875 -4.503906 6.394531 -4.691406 6.0625 -4.828125 C 5.726562 -4.960938 5.269531 -5.113281 4.6875 -5.28125 C 3.882812 -5.507812 3.234375 -5.738281 2.734375 -5.96875 C 2.242188 -6.195312 1.816406 -6.539062 1.453125 -7 C 1.097656 -7.46875 0.921875 -8.085938 0.921875 -8.859375 C 0.921875 -9.578125 1.101562 -10.203125 1.46875 -10.734375 C 1.832031 -11.273438 2.34375 -11.6875 3 -11.96875 C 3.65625 -12.257812 4.398438 -12.40625 5.234375 -12.40625 C 6.503906 -12.40625 7.53125 -12.097656 8.3125 -11.484375 C 9.101562 -10.878906 9.539062 -10.023438 9.625 -8.921875 L 6.921875 -8.921875 C 6.898438 -9.335938 6.722656 -9.679688 6.390625 -9.953125 C 6.054688 -10.234375 5.613281 -10.375 5.0625 -10.375 C 4.582031 -10.375 4.195312 -10.25 3.90625 -10 C 3.625 -9.757812 3.484375 -9.40625 3.484375 -8.9375 C 3.484375 -8.613281 3.59375 -8.34375 3.8125 -8.125 C 4.03125 -7.90625 4.300781 -7.726562 4.625 -7.59375 C 4.945312 -7.457031 5.398438 -7.304688 5.984375 -7.140625 C 6.773438 -6.898438 7.421875 -6.660156 7.921875 -6.421875 C 8.421875 -6.191406 8.851562 -5.84375 9.21875 -5.375 C 9.582031 -4.914062 9.765625 -4.304688 9.765625 -3.546875 C 9.765625 -2.890625 9.59375 -2.28125 9.25 -1.71875 C 8.914062 -1.15625 8.421875 -0.707031 7.765625 -0.375 C 7.109375 -0.0390625 6.332031 0.125 5.4375 0.125 Z M 5.4375 0.125 "/></g></g></g><g fill="#ea482f" fill-opacity="1"><g transform="translate(106.3065, 19.987828)"><g><path d="M 11.359375 -12.234375 L 11.359375 0 L 8.90625 0 L 8.90625 -5.203125 L 3.65625 -5.203125 L 3.65625 0 L 1.203125 0 L 1.203125 -12.234375 L 3.65625 -12.234375 L 3.65625 -7.203125 L 8.90625 -7.203125 L 8.90625 -12.234375 Z M 11.359375 -12.234375 "/></g></g></g><g fill="#ea482f" fill-opacity="1"><g transform="translate(117.11379, 19.987828)"><g><path d="M 6.890625 0.125 C 5.742188 0.125 4.691406 -0.140625 3.734375 -0.671875 C 2.773438 -1.210938 2.015625 -1.957031 1.453125 -2.90625 C 0.890625 -3.863281 0.609375 -4.945312 0.609375 -6.15625 C 0.609375 -7.34375 0.890625 -8.410156 1.453125 -9.359375 C 2.015625 -10.316406 2.773438 -11.0625 3.734375 -11.59375 C 4.691406 -12.132812 5.742188 -12.40625 6.890625 -12.40625 C 8.046875 -12.40625 9.097656 -12.132812 10.046875 -11.59375 C 11.003906 -11.0625 11.757812 -10.316406 12.3125 -9.359375 C 12.863281 -8.410156 13.140625 -7.34375 13.140625 -6.15625 C 13.140625 -4.945312 12.863281 -3.863281 12.3125 -2.90625 C 11.757812 -1.957031 11.003906 -1.210938 10.046875 -0.671875 C 9.085938 -0.140625 8.035156 0.125 6.890625 0.125 Z M 6.890625 -2.0625 C 7.628906 -2.0625 8.273438 -2.226562 8.828125 -2.5625 C 9.390625 -2.894531 9.828125 -3.367188 10.140625 -3.984375 C 10.460938 -4.609375 10.625 -5.332031 10.625 -6.15625 C 10.625 -6.96875 10.460938 -7.679688 10.140625 -8.296875 C 9.828125 -8.910156 9.390625 -9.378906 8.828125 -9.703125 C 8.273438 -10.035156 7.628906 -10.203125 6.890625 -10.203125 C 6.148438 -10.203125 5.492188 -10.035156 4.921875 -9.703125 C 4.359375 -9.378906 3.921875 -8.910156 3.609375 -8.296875 C 3.296875 -7.679688 3.140625 -6.96875 3.140625 -6.15625 C 3.140625 -5.332031 3.296875 -4.609375 3.609375 -3.984375 C 3.921875 -3.367188 4.359375 -2.894531 4.921875 -2.5625 C 5.492188 -2.226562 6.148438 -2.0625 6.890625 -2.0625 Z M 6.890625 -2.0625 "/></g></g></g><g fill="#ea482f" fill-opacity="1"><g transform="translate(129.112314, 19.987828)"><g><path d="M 10.140625 -8.453125 C 10.140625 -7.796875 9.984375 -7.179688 9.671875 -6.609375 C 9.359375 -6.035156 8.867188 -5.570312 8.203125 -5.21875 C 7.546875 -4.875 6.71875 -4.703125 5.71875 -4.703125 L 3.65625 -4.703125 L 3.65625 0 L 1.203125 0 L 1.203125 -12.234375 L 5.71875 -12.234375 C 6.664062 -12.234375 7.472656 -12.066406 8.140625 -11.734375 C 8.804688 -11.410156 9.304688 -10.960938 9.640625 -10.390625 C 9.972656 -9.816406 10.140625 -9.171875 10.140625 -8.453125 Z M 5.609375 -6.671875 C 6.285156 -6.671875 6.785156 -6.828125 7.109375 -7.140625 C 7.441406 -7.453125 7.609375 -7.890625 7.609375 -8.453125 C 7.609375 -9.640625 6.941406 -10.234375 5.609375 -10.234375 L 3.65625 -10.234375 L 3.65625 -6.671875 Z M 5.609375 -6.671875 "/></g></g></g><g fill="#ea482f" fill-opacity="1"><g transform="translate(138.010118, 19.987828)"><g><path d="M 3.65625 -10.25 L 3.65625 -7.1875 L 7.78125 -7.1875 L 7.78125 -5.234375 L 3.65625 -5.234375 L 3.65625 -2 L 8.3125 -2 L 8.3125 0 L 1.203125 0 L 1.203125 -12.25 L 8.3125 -12.25 L 8.3125 -10.25 Z M 3.65625 -10.25 "/></g></g></g><g fill="#ea482f" fill-opacity="1"><g transform="translate(145.576543, 19.987828)"><g><path d="M 3.65625 -10.25 L 3.65625 -7.1875 L 7.78125 -7.1875 L 7.78125 -5.234375 L 3.65625 -5.234375 L 3.65625 -2 L 8.3125 -2 L 8.3125 0 L 1.203125 0 L 1.203125 -12.25 L 8.3125 -12.25 L 8.3125 -10.25 Z M 3.65625 -10.25 "/></g></g></g><path stroke-linecap="butt" transform="matrix(1.44562, 0, 0, 1.548387, 82.609534, 4.085206)" fill="none" stroke-linejoin="miter" d="M -0.000110204 0.000472157 L 49.202927 0.000472157 " stroke="#000000" stroke-width="1" stroke-opacity="1" stroke-miterlimit="4"/><g clip-path="url(#b317929bd2)"><path stroke-linecap="butt" transform="matrix(1.445191, 0, 0, 1.809803, 3.134736, 24.397713)" fill="none" stroke-linejoin="miter" d="M -0.00133114 0.000400486 L 54.749226 0.000400486 " stroke="#000000" stroke-width="1" stroke-opacity="1" stroke-miterlimit="4"/></g><g clip-path="url(#48c05e2992)"><path fill="#000000" d="M 94.722656 18.121094 C 95.722656 16.90625 96.273438 15.382812 96.273438 13.769531 C 96.273438 11.972656 95.59375 10.28125 94.363281 9.007812 C 93.132812 7.738281 91.5 7.039062 89.761719 7.039062 C 88.019531 7.039062 86.386719 7.738281 85.15625 9.007812 C 82.617188 11.632812 82.617188 15.90625 85.15625 18.53125 C 86.386719 19.800781 88.019531 20.5 89.761719 20.5 C 91.320312 20.5 92.792969 19.933594 93.96875 18.898438 L 98.339844 23.417969 C 98.445312 23.527344 98.578125 23.582031 98.714844 23.582031 C 98.851562 23.582031 98.988281 23.527344 99.09375 23.417969 C 99.300781 23.203125 99.300781 22.855469 99.09375 22.640625 Z M 85.910156 17.75 C 83.789062 15.554688 83.789062 11.984375 85.910156 9.789062 C 88.03125 7.59375 91.488281 7.59375 93.609375 9.789062 C 94.636719 10.851562 95.203125 12.265625 95.203125 13.769531 C 95.203125 15.273438 94.636719 16.6875 93.609375 17.75 C 91.488281 19.945312 88.03125 19.945312 85.910156 17.75 Z M 85.910156 17.75 " fill-opacity="1" fill-rule="nonzero"/></g></svg>